<svg xmlns:serif="http://www.serif.com/" xmlns="http://www.w3.org/2000/svg" xmlns:xlink="http://www.w3.org/1999/xlink" version="1.1" id="Layer_1" x="0px" y="0px" viewBox="0 0 1920 1080" style="enable-background:new 0 0 1920 1080;" xml:space="preserve" width="1920"  height="1080" >
<style type="text/css">
	.st0{fill:#E51E25;}
	.st1{fill:#FFFFFF;}
</style>
<g id="Layer-1" serif:id="Layer 1">
	<path class="st0" d="M1276.4,93h-80.8v451.8c73.4,2.5,146.5,6.2,219.3,11.1v-79.6c-46.1-3.1-92.2-5.7-138.6-7.8V93L1276.4,93z    M1918.3,93.1h-88.7l-58.5,135.6l-52.6-135.6h-87.4l93.9,242.3L1622.6,573c28.4,2.8,56.7,5.7,84.9,8.8l59.6-138.2l59.1,152.3   c30.8,4,61.4,8.1,92.1,12.5l0.1-0.1l-105.2-271.4L1918.3,93.1L1918.3,93.1z M918.3,540.8l80.8,0V357.1h109.5v-79.6H999.1V173.4   h144.7V93.1H918.3V540.8L918.3,540.8z M616.6,173.4h84.5v372.2c26.9-1,53.8-1.9,80.8-2.6V173.4h84.5V93.1H616.6V173.4z    M340.5,568.7c74.5-6.8,149.3-12.3,224.4-16.7v-79.6c-48,2.8-95.9,6.1-143.6,9.8V361.7c31.3-0.3,72.6-1.3,109.1-0.8v-79.6   c-29.2-0.1-76.1,0.4-109.1,0.8V173.4h143.6V93.1H340.5L340.5,568.7L340.5,568.7z M182,384.7L76.8,93.1H0v515.4   c26.9-3.8,53.8-7.5,80.8-11V317.2l93.6,268.7c29.4-3.4,58.9-6.6,88.4-9.7V93.1H182V384.7z M1481.5,560.7c27,2.1,53.9,4.3,80.8,6.7   V93.1h-80.8V560.7L1481.5,560.7z"/>
	<path class="st1" d="M275.9,701.5h53.5v108.7h136.2V701.5h53.1v278h-53.1V857.2H329.4v122.2h-53.5L275.9,701.5L275.9,701.5z"/>
	<path class="st1" d="M794.4,840.5c0-19.2-3.7-36.1-11-50.7c-7.3-14.6-17.5-26.1-30.6-34.3c-13.1-8.3-28-12.4-44.7-12.4   s-31.7,4.1-44.7,12.4c-13.1,8.3-23.2,19.7-30.6,34.3c-7.3,14.7-11,31.6-11,50.7c0,19.2,3.7,36.1,11,50.7   c7.3,14.6,17.5,26.1,30.6,34.4c13,8.3,28,12.4,44.7,12.4s31.7-4.1,44.7-12.4c13-8.3,23.2-19.7,30.6-34.4   C790.7,876.6,794.4,859.6,794.4,840.5 M577.9,898.6c-6.9-17.7-10.4-37.1-10.4-58.1c0-21,3.5-40.4,10.4-58.1   c6.9-17.7,16.6-33.1,29.2-46.1c12.5-13,27.4-23.2,44.5-30.4c17.2-7.2,36-10.8,56.5-10.8c20.5,0,39.3,3.6,56.5,10.8   c17.2,7.2,32,17.3,44.5,30.4c12.5,13.1,22.2,28.4,29.2,46.1c6.9,17.7,10.4,37.1,10.4,58.1c0,21-3.5,40.4-10.4,58.1   c-6.9,17.7-16.6,33.1-29.2,46.1c-12.5,13.1-27.4,23.2-44.5,30.4c-17.2,7.2-36,10.8-56.5,10.8c-20.5,0-39.3-3.6-56.5-10.8   c-17.2-7.2-32-17.3-44.5-30.4C594.5,931.7,584.8,916.3,577.9,898.6"/>
	<path class="st1" d="M893.4,701.5H947v152.2c0,25.8,5.3,46.3,15.8,61.5c10.5,15.2,27.6,22.8,51.3,22.8c23.7,0,40.8-7.6,51.3-22.8   c10.5-15.2,15.8-35.7,15.8-61.5V701.5h53.5v158.2c0,25.6-4.6,47.8-13.8,66.7c-9.2,18.9-22.7,33.6-40.5,43.9   c-17.8,10.4-39.9,15.6-66.3,15.6c-26.1,0-48.1-5.2-66.1-15.6c-18-10.4-31.6-25-40.7-43.9c-9.2-18.9-13.8-41.1-13.8-66.7V701.5z"/>
	<path class="st1" d="M1401.1,898.4c0,18.6-4.7,34.5-14,47.5c-9.3,13.1-22.2,23-38.5,29.8c-16.4,6.8-35.1,10.2-56.1,10.2   c-32.2,0-58.5-7.4-78.7-22.4c-20.2-14.9-33.4-35.6-39.5-61.9h53.5c3.5,11.5,10.9,20.6,22.2,27.6c11.3,6.9,25.2,10.4,41.7,10.4   c16,0,29.2-3.2,39.5-9.6c10.4-6.4,15.6-15.3,15.6-26.8c0-6.9-1.5-12.8-4.4-17.8c-2.9-4.9-8.4-9.2-16.4-12.8c-8-3.6-19.6-6.6-34.8-9   l-31.2-5.2c-26.1-4.5-45.6-12.8-58.5-25c-12.9-12.1-19.4-29.6-19.4-52.5c0-17.6,4.7-32.8,14-45.7c9.3-12.9,22-22.8,38.1-29.8   c16.1-6.9,34.2-10.4,54.1-10.4c29,0,53.4,6.9,73.1,20.6c19.7,13.7,31.7,33.6,36,59.7H1344c-2.7-11.4-8.7-20-18.2-25.6   c-9.5-5.6-21.6-8.4-36.5-8.4c-16.2,0-29.2,3.1-38.7,9.4c-9.6,6.3-14.4,14.8-14.4,25.8c0,9.6,3.6,17,10.8,22.4   c7.2,5.3,21.2,9.7,41.9,13.2l30,5.2C1373.7,826.4,1401.1,853.4,1401.1,898.4"/>
	<path class="st1" d="M1449.9,701.5h199.7v46.7H1503v66.3h142.2v46.7H1503v71.5h148.6v46.7h-201.7V701.5z"/>
</g>
</svg>